<svg id="visual" viewBox="0 0 900 600" width="900" height="600" xmlns="http://www.w3.org/2000/svg" xmlns:xlink="http://www.w3.org/1999/xlink" version="1.1"><path d="M0 49L82 49L82 31L164 31L164 73L245 73L245 85L327 85L327 31L409 31L409 49L491 49L491 67L573 67L573 67L655 67L655 31L736 31L736 49L818 49L818 37L900 37L900 55L900 0L900 0L818 0L818 0L736 0L736 0L655 0L655 0L573 0L573 0L491 0L491 0L409 0L409 0L327 0L327 0L245 0L245 0L164 0L164 0L82 0L82 0L0 0Z" fill="#27374d"></path><path d="M0 145L82 145L82 181L164 181L164 211L245 211L245 217L327 217L327 241L409 241L409 187L491 187L491 229L573 229L573 157L655 157L655 223L736 223L736 139L818 139L818 211L900 211L900 277L900 53L900 35L818 35L818 47L736 47L736 29L655 29L655 65L573 65L573 65L491 65L491 47L409 47L409 29L327 29L327 83L245 83L245 71L164 71L164 29L82 29L82 47L0 47Z" fill="#7b8a99"></path><path d="M0 187L82 187L82 229L164 229L164 271L245 271L245 283L327 283L327 331L409 331L409 229L491 229L491 301L573 301L573 193L655 193L655 343L736 343L736 253L818 253L818 271L900 271L900 343L900 275L900 209L818 209L818 137L736 137L736 221L655 221L655 155L573 155L573 227L491 227L491 185L409 185L409 239L327 239L327 215L245 215L245 209L164 209L164 179L82 179L82 143L0 143Z" fill="#dde6ed"></path><path d="M0 271L82 271L82 289L164 289L164 361L245 361L245 373L327 373L327 409L409 409L409 313L491 313L491 391L573 391L573 235L655 235L655 403L736 403L736 283L818 283L818 343L900 343L900 433L900 341L900 269L818 269L818 251L736 251L736 341L655 341L655 191L573 191L573 299L491 299L491 227L409 227L409 329L327 329L327 281L245 281L245 269L164 269L164 227L82 227L82 185L0 185Z" fill="#dde6ed"></path><path d="M0 511L82 511L82 505L164 505L164 541L245 541L245 475L327 475L327 541L409 541L409 541L491 541L491 499L573 499L573 457L655 457L655 517L736 517L736 517L818 517L818 499L900 499L900 505L900 431L900 341L818 341L818 281L736 281L736 401L655 401L655 233L573 233L573 389L491 389L491 311L409 311L409 407L327 407L327 371L245 371L245 359L164 359L164 287L82 287L82 269L0 269Z" fill="#7b8a99"></path><path d="M0 601L82 601L82 601L164 601L164 601L245 601L245 601L327 601L327 601L409 601L409 601L491 601L491 601L573 601L573 601L655 601L655 601L736 601L736 601L818 601L818 601L900 601L900 601L900 503L900 497L818 497L818 515L736 515L736 515L655 515L655 455L573 455L573 497L491 497L491 539L409 539L409 539L327 539L327 473L245 473L245 539L164 539L164 503L82 503L82 509L0 509Z" fill="#27374d"></path></svg>